# xmcd
#
# Track frame offsets: 
#        150
#        12478
#        24996
#        38562
#        48300
#        59117
#        69249
#        86277
#        100198
#        113815
#
# Disc length: 1724 seconds
#
# Revision: 0
# Processed by: cddbd v1.5.2PL0 Copyright (c) Steve Scherf et al.
# Submitted via: ExactAudioCopyFreeDBPlugin 1.0
#
DISCID=7606ba0a
DTITLE=Moonshine Wagon - Folk you!
DYEAR=2015
DGENRE=Bluegrass
TTITLE0=Folk you!
TTITLE1=Moonshine in your life
TTITLE2=Let's go down to hell
TTITLE3=Lonely glass of whiskey
TTITLE4=Popcorn sutton
TTITLE5=Gipsycho
TTITLE6=Billy Wild
TTITLE7=Still drunk
TTITLE8=Rascals and a rooster
TTITLE9=The boy who wouldn't how corn
EXTD=
EXTT0=
EXTT1=
EXTT2=
EXTT3=
EXTT4=
EXTT5=
EXTT6=
EXTT7=
EXTT8=
EXTT9=
PLAYORDER=
